<svg xmlns="http://www.w3.org/2000/svg" width="122.205" height="44.742" viewBox="0 0 122.205 44.742">
  <g id="Group_470" data-name="Group 470" transform="translate(-847.5 -2031.5)">
    <g id="Group_450" data-name="Group 450" transform="translate(36.761 0.001)">
      <g id="Group_301" data-name="Group 301" transform="translate(852.847 2035.264)">
        <path id="Path_800" data-name="Path 800" d="M1979.742,2135.175h3.225v6.537h.064c.321-.57.662-1.1.983-1.623l3.268-4.914h3.994l-4.764,6.3,5.02,8.487h-3.8l-3.525-6.383-1.239,1.558v4.826h-3.225Z" transform="translate(-1979.101 -2134.935)" fill="#272727"/>
        <rect id="Rectangle_920" data-name="Rectangle 920" width="3.268" height="14.783" transform="translate(14.187 0.24)" fill="#272727"/>
        <path id="Path_801" data-name="Path 801" d="M2031.543,2135.2a25.856,25.856,0,0,1,4.4-.307,6.771,6.771,0,0,1,4.4,1.185,4.368,4.368,0,0,1,1.537,3.421,4.792,4.792,0,0,1-1.325,3.509,6.564,6.564,0,0,1-4.677,1.557,7.933,7.933,0,0,1-1.111-.066v5.286h-3.225Zm3.225,6.712a4.8,4.8,0,0,0,1.089.088c1.73,0,2.8-.9,2.8-2.412,0-1.36-.919-2.173-2.542-2.173a5.433,5.433,0,0,0-1.346.133Z" transform="translate(-2010.84 -2134.761)" fill="#272727"/>
        <path id="Path_802" data-name="Path 802" d="M2063.927,2146.134a8.128,8.128,0,0,0,3.61.921c1.495,0,2.285-.637,2.285-1.6,0-.921-.684-1.447-2.414-2.083-2.393-.854-3.952-2.214-3.952-4.364,0-2.521,2.05-4.451,5.448-4.451a8.617,8.617,0,0,1,3.674.745l-.727,2.7a6.69,6.69,0,0,0-3.011-.7c-1.409,0-2.094.658-2.094,1.425,0,.945.812,1.36,2.671,2.084,2.541.966,3.739,2.324,3.739,4.407,0,2.48-1.859,4.585-5.811,4.585a9.235,9.235,0,0,1-4.079-.9Z" transform="translate(-2030.276 -2134.555)" fill="#272727"/>
        <path id="Path_803" data-name="Path 803" d="M1989,2201.021a9.025,9.025,0,0,1-3.8.7c-4.059,0-7.113-2.633-7.113-7.48,0-4.628,3.054-7.763,7.518-7.763a7.559,7.559,0,0,1,3.417.656l-.448,1.558a6.616,6.616,0,0,0-2.906-.613c-3.375,0-5.617,2.214-5.617,6.1,0,3.618,2.028,5.943,5.531,5.943a7.279,7.279,0,0,0,3.033-.615Z" transform="translate(-1978.088 -2166.369)" fill="#272727"/>
        <path id="Path_804" data-name="Path 804" d="M2022.082,2193.958c0,5.088-3.011,7.786-6.685,7.786-3.8,0-6.472-3.027-6.472-7.5,0-4.7,2.841-7.763,6.686-7.763,3.931,0,6.472,3.091,6.472,7.478m-11.171.241c0,3.159,1.666,5.987,4.593,5.987,2.947,0,4.613-2.786,4.613-6.14,0-2.939-1.5-6.01-4.592-6.01-3.076,0-4.614,2.917-4.614,6.163" transform="translate(-1996.981 -2166.369)" fill="#272727"/>
        <path id="Path_805" data-name="Path 805" d="M2049.14,2187.1H2051v13.181h6.152v1.6h-8.011Z" transform="translate(-2021.622 -2166.75)" fill="#272727"/>
        <path id="Path_806" data-name="Path 806" d="M2075.181,2187.1h1.858v13.181h6.153v1.6h-8.01Z" transform="translate(-2037.577 -2166.75)" fill="#272727"/>
        <path id="Path_807" data-name="Path 807" d="M2108.673,2194.951h-5.6v5.33h6.237v1.6h-8.1V2187.1h7.775v1.6h-5.916v4.673h5.6Z" transform="translate(-2053.53 -2166.75)" fill="#272727"/>
        <path id="Path_808" data-name="Path 808" d="M2137.966,2200.982a13.131,13.131,0,0,1-4.421.811,7.288,7.288,0,0,1-5.383-1.953,7.715,7.715,0,0,1-2.008-5.5c.022-4.408,2.969-7.632,7.8-7.632a8.7,8.7,0,0,1,3.588.68l-.449,1.558a7.263,7.263,0,0,0-3.183-.637c-3.5,0-5.788,2.238-5.788,5.945,0,3.75,2.2,5.964,5.553,5.964a5.9,5.9,0,0,0,2.478-.4v-4.408h-2.926v-1.534h4.741Z" transform="translate(-2068.808 -2166.506)" fill="#272727"/>
        <path id="Path_809" data-name="Path 809" d="M2171.454,2194.951h-5.6v5.33h6.236v1.6H2164V2187.1h7.775v1.6h-5.917v4.673h5.6Z" transform="translate(-2091.996 -2166.75)" fill="#272727"/>
      </g>
      <path id="Subtraction_2" data-name="Subtraction 2" d="M7840.713-5933.274h0l-.132-.033c-.08-.02-2.006-.534-7.88-4.071-6.031-3.628-6.616-8.892-6.638-9.114l-.063-.609V-5977h29.452l0,29.958-.059.558c-.022.222-.608,5.477-6.638,9.106-5.87,3.533-7.824,4.051-7.9,4.071l-.134.033Zm-13.628-42.643v28.784l.057.53a9.31,9.31,0,0,0,.977,2.912,13.377,13.377,0,0,0,5.139,5.382,45.521,45.521,0,0,0,7.458,3.909,45.087,45.087,0,0,0,7.476-3.909c5.467-3.292,6.093-8.086,6.117-8.289l.057-.533v-28.786Z" transform="translate(-7014.761 8009)" fill="#00366c" stroke="rgba(0,0,0,0)" stroke-miterlimit="10" stroke-width="1"/>
      <g id="Group_302" data-name="Group 302" transform="translate(816.283 2039.742)">
        <path id="Path_812" data-name="Path 812" d="M1884.6,2192.086h.981v3.47h.033c.2-.282.406-.535.6-.771l2.321-2.7h1.216l-2.749,3.052,2.964,4.142H1888.8l-2.5-3.533-.722.79v2.743h-.981Z" transform="translate(-1884.243 -2174.282)" fill="#161615"/>
        <rect id="Rectangle_921" data-name="Rectangle 921" width="0.98" height="7.19" transform="translate(6.461 17.805)" fill="#161615"/>
        <path id="Path_813" data-name="Path 813" d="M1907.319,2192.086a11.907,11.907,0,0,1,1.882-.139,3.24,3.24,0,0,1,2.129.6,1.886,1.886,0,0,1,.665,1.506,2.063,2.063,0,0,1-.586,1.534,3.25,3.25,0,0,1-2.32.789,3.592,3.592,0,0,1-.788-.063v2.879h-.981Zm.981,3.467a3.452,3.452,0,0,0,.811.075c1.183,0,1.9-.545,1.9-1.536,0-.949-.709-1.409-1.792-1.409a4.5,4.5,0,0,0-.922.073Z" transform="translate(-1898.165 -2174.197)" fill="#161615"/>
        <path id="Path_814" data-name="Path 814" d="M1922.057,2197.958a3.614,3.614,0,0,0,1.759.47c1,0,1.588-.5,1.588-1.226,0-.673-.406-1.055-1.431-1.429-1.24-.416-2.005-1.025-2.005-2.039,0-1.122.981-1.954,2.456-1.954a3.635,3.635,0,0,1,1.68.353l-.271.757a3.186,3.186,0,0,0-1.443-.34c-1.036,0-1.43.585-1.43,1.079,0,.671.461,1,1.509,1.385,1.284.47,1.937,1.059,1.937,2.112,0,1.11-.865,2.073-2.657,2.073a4.1,4.1,0,0,1-1.938-.46Z" transform="translate(-1907.043 -2174.094)" fill="#161615"/>
        <path id="Path_815" data-name="Path 815" d="M1930.134,2151.842a1.107,1.107,0,1,1-1.107-1.069,1.087,1.087,0,0,1,1.107,1.069" transform="translate(-1910.788 -2148.969)" fill="#0070bf" fill-rule="evenodd"/>
        <path id="Path_816" data-name="Path 816" d="M1908.169,2147.182a1.109,1.109,0,1,1-1.107-1.066,1.088,1.088,0,0,1,1.107,1.066" transform="translate(-1897.328 -2146.116)" fill="#0070bf" fill-rule="evenodd"/>
        <path id="Path_817" data-name="Path 817" d="M1885.9,2151.688a1.107,1.107,0,1,1-1.109-1.066,1.087,1.087,0,0,1,1.109,1.066" transform="translate(-1883.683 -2148.877)" fill="#0070bf" fill-rule="evenodd"/>
        <path id="Path_818" data-name="Path 818" d="M1893.632,2172.515l4.405,2.216a.8.8,0,0,0-.062-.063,6.992,6.992,0,0,0-.543-.479c-.1-.087-.2-.16-.305-.237s-.219-.153-.332-.224-.227-.145-.343-.21-.239-.129-.361-.2c-.243-.125-.5-.238-.75-.338-.125-.046-.253-.088-.379-.14-.13-.036-.256-.074-.376-.116-.252-.061-.5-.126-.734-.172-.074-.019-.15-.029-.221-.041" transform="translate(-1889.779 -2162.291)" fill="#0070bf" fill-rule="evenodd"/>
        <path id="Path_819" data-name="Path 819" d="M1896.47,2169.433c.273.093.547.191.811.31.135.059.266.118.4.184s.257.135.382.2.246.15.367.223.234.151.342.235c.226.157.429.324.618.483s.361.33.514.488c.125.126.235.255.336.372-.039-.1-.08-.207-.124-.3-.069-.153-.136-.3-.218-.455s-.162-.286-.25-.428-.181-.279-.278-.416-.2-.265-.308-.4-.221-.247-.335-.37l-.177-.181-.181-.17c-.126-.111-.25-.225-.383-.332l-.2-.156-.2-.148c-.135-.1-.277-.191-.417-.281s-.286-.18-.436-.257l-.219-.122-.23-.111c-.149-.081-.307-.148-.461-.217s-.313-.124-.469-.188c-.039-.014-.079-.03-.117-.039l.566,1.9c.088.018.177.041.268.061.134.039.271.082.406.122" transform="translate(-1890.759 -2159.129)" fill="#0070bf" fill-rule="evenodd"/>
        <path id="Path_820" data-name="Path 820" d="M1889.515,2160.192c.109,0,.221.02.34.029s.235.022.356.046.271.041.408.062l-.557-2.042-.1-.369.358.137c.163.067.328.126.49.19s.323.141.479.215.317.149.472.235l.232.124.224.132c.152.087.3.191.44.279s.291.2.425.308l.208.163.2.164c.132.113.26.233.384.357l.182.178.173.193c.116.13.227.258.335.4s.206.27.3.415.19.283.275.433.167.295.242.452.141.3.209.464.118.315.168.479c.015.05.027.1.04.138h.013V2152.98c-.218,0-.45,0-.671,0a11.092,11.092,0,0,1-1.691,4.085c-1.656,2.49-4.648-1.323-5.444-2.417-.088.02-.178.052-.265.079-.045.016-.088.034-.143.054q.7,2.691,1.385,5.387c.128,0,.432.021.535.023" transform="translate(-1886.081 -2150.322)" fill="#0070bf" fill-rule="evenodd"/>
        <path id="Path_821" data-name="Path 821" d="M1917.007,2172.515l-4.408,2.216c.022-.02.041-.042.062-.063.167-.159.348-.323.546-.479.1-.087.2-.16.307-.237s.215-.153.328-.224.226-.145.346-.21.238-.129.359-.2c.245-.125.5-.238.75-.338.125-.046.253-.088.379-.14.127-.036.252-.074.379-.116.25-.061.495-.126.732-.172.076-.019.147-.029.22-.041" transform="translate(-1901.4 -2162.291)" fill="#0070bf" fill-rule="evenodd"/>
        <path id="Path_822" data-name="Path 822" d="M1913.226,2169.433c-.274.093-.547.191-.812.31-.131.059-.267.118-.394.184s-.257.135-.38.2-.246.15-.368.223-.235.151-.342.235c-.226.157-.429.324-.62.483s-.359.33-.512.488c-.126.126-.237.255-.335.372.039-.1.079-.207.123-.3.068-.153.139-.3.215-.455s.165-.286.253-.428.182-.279.28-.416.2-.265.309-.4.218-.247.334-.37l.176-.181.181-.17c.125-.111.25-.225.381-.332l.2-.156.2-.148c.136-.1.278-.191.418-.281s.287-.18.436-.257l.219-.122.228-.111c.152-.081.311-.148.463-.217s.315-.124.472-.188a1.037,1.037,0,0,1,.116-.039l-.569,1.9c-.086.018-.177.041-.268.061l-.405.122" transform="translate(-1899.478 -2159.129)" fill="#0070bf" fill-rule="evenodd"/>
        <path id="Path_823" data-name="Path 823" d="M1915.1,2160.192c-.109,0-.221.02-.336.029s-.237.022-.358.046-.27.041-.406.062l.554-2.042.1-.369-.356.137c-.166.067-.33.126-.494.19s-.324.141-.48.215-.316.149-.47.235l-.233.124-.222.132c-.154.087-.3.191-.445.279s-.284.2-.424.308l-.205.163-.2.164c-.133.113-.26.233-.387.357l-.18.178-.174.193c-.114.13-.228.258-.331.4s-.207.27-.306.415-.184.283-.272.433-.167.295-.241.452-.143.3-.207.464-.119.315-.171.479c-.012.05-.026.1-.037.138h-.017V2152.98c.22,0,.452,0,.67,0a11.16,11.16,0,0,0,1.7,4.085c1.653,2.49,4.647-1.323,5.442-2.417.088.02.177.052.265.079.045.016.087.034.143.054q-.693,2.691-1.384,5.387c-.129,0-.432.021-.537.023" transform="translate(-1899.075 -2150.322)" fill="#00366c" fill-rule="evenodd"/>
        <path id="Path_824" data-name="Path 824" d="M1895.79,2174.742h0l-1.069-.17v-.351l-1.76-.919-5.394-2.717,3.122,4.346,1.534.562,2.507.912,0,.173,1.061.182Z" transform="translate(-1886.061 -2161.107)" fill="#0070bf" fill-rule="evenodd"/>
        <path id="Path_825" data-name="Path 825" d="M1908.8,2174.742h0l1.069-.17v-.351l1.759-.919,5.393-2.717-3.121,4.346-1.532.562-2.508.912,0,.173-1.061.182Z" transform="translate(-1899.075 -2161.107)" fill="#00366c" fill-rule="evenodd"/>
      </g>
    </g>
  </g>
</svg>
