<svg xmlns="http://www.w3.org/2000/svg" width="98" height="49.663" viewBox="0 0 98 49.663">
  <g id="Group_471" data-name="Group 471" transform="translate(-1076.57 -2028.5)">
    <g id="Group_444" data-name="Group 444" transform="translate(45.259 -3.131)">
      <path id="Subtraction_3" data-name="Subtraction 3" d="M7842.373-5928.337h0l-.147-.038c-.086-.021-2.193-.572-8.769-4.53a16.16,16.16,0,0,1-6.208-6.5,10.97,10.97,0,0,1-1.177-3.645l-.071-.678V-5977h32.774l0,33.34-.067.621a11.166,11.166,0,0,1-1.178,3.638,16.169,16.169,0,0,1-6.208,6.5c-6.619,3.984-8.775,4.525-8.8,4.53l-.147.038Zm-15.167-47.458v32.034l.065.59a10.717,10.717,0,0,0,1.114,3.295,14.906,14.906,0,0,0,5.692,5.937,50.867,50.867,0,0,0,8.3,4.349,49.97,49.97,0,0,0,8.319-4.349,14.9,14.9,0,0,0,5.721-5.989,10.421,10.421,0,0,0,1.087-3.237l.065-.594v-32.036Z" transform="translate(-6794.189 8009.131)" fill="#0070bf" stroke="rgba(0,0,0,0)" stroke-miterlimit="10" stroke-width="1"/>
      <g id="Group_305" data-name="Group 305" transform="translate(1037.424 2040.746)">
        <path id="Path_828" data-name="Path 828" d="M333.2,2174.009H334.3v3.86h.037c.227-.313.451-.595.665-.859l2.583-3h1.353l-3.06,3.4,3.3,4.611h-1.291l-2.783-3.934-.8.88v3.054H333.2Z" transform="translate(-332.81 -2154.194)" fill="#161615"/>
        <rect id="Rectangle_922" data-name="Rectangle 922" width="1.092" height="8.002" transform="translate(7.19 19.815)" fill="#161615"/>
        <path id="Path_829" data-name="Path 829" d="M356.842,2174.018a13.24,13.24,0,0,1,2.094-.155,3.6,3.6,0,0,1,2.369.666,2.1,2.1,0,0,1,.74,1.676,2.294,2.294,0,0,1-.652,1.708,3.617,3.617,0,0,1-2.582.879,3.921,3.921,0,0,1-.877-.071v3.205h-1.091Zm1.091,3.858a3.812,3.812,0,0,0,.9.083c1.317,0,2.118-.606,2.118-1.709,0-1.057-.79-1.568-1.994-1.568a4.948,4.948,0,0,0-1.027.082Z" transform="translate(-346.654 -2154.109)" fill="#161615"/>
        <path id="Path_830" data-name="Path 830" d="M372.187,2180.566a4.043,4.043,0,0,0,1.958.522c1.114,0,1.767-.56,1.767-1.364,0-.75-.452-1.175-1.593-1.591-1.38-.463-2.231-1.14-2.231-2.269,0-1.248,1.093-2.175,2.733-2.175a4.022,4.022,0,0,1,1.87.394l-.3.841a3.545,3.545,0,0,0-1.6-.379c-1.153,0-1.593.652-1.593,1.2,0,.747.513,1.114,1.68,1.543,1.427.522,2.155,1.177,2.155,2.349,0,1.235-.963,2.307-2.957,2.307a4.576,4.576,0,0,1-2.157-.511Z" transform="translate(-355.48 -2154.007)" fill="#161615"/>
        <path id="Path_831" data-name="Path 831" d="M380.733,2132.217a1.232,1.232,0,1,1-1.232-1.19,1.211,1.211,0,0,1,1.232,1.19" transform="translate(-359.204 -2129.02)" fill="#0070bf" fill-rule="evenodd"/>
        <path id="Path_832" data-name="Path 832" d="M357.884,2127.37a1.234,1.234,0,1,1-1.232-1.186,1.211,1.211,0,0,1,1.232,1.186" transform="translate(-345.82 -2126.184)" fill="#0070bf" fill-rule="evenodd"/>
        <path id="Path_833" data-name="Path 833" d="M334.715,2132.056a1.232,1.232,0,1,1-1.234-1.186,1.209,1.209,0,0,1,1.234,1.186" transform="translate(-332.252 -2128.928)" fill="#0070bf" fill-rule="evenodd"/>
        <path id="Path_834" data-name="Path 834" d="M342.6,2153.646l4.9,2.468a.849.849,0,0,0-.069-.071,7.593,7.593,0,0,0-.6-.532c-.109-.1-.225-.179-.341-.264s-.242-.17-.367-.25-.254-.16-.383-.234-.266-.143-.4-.218c-.271-.138-.553-.264-.834-.376-.138-.052-.281-.1-.421-.155-.144-.04-.283-.083-.419-.129-.28-.069-.553-.14-.817-.192-.082-.021-.166-.032-.245-.046" transform="translate(-338.314 -2142.267)" fill="#0070bf" fill-rule="evenodd"/>
        <path id="Path_835" data-name="Path 835" d="M345.646,2150.589c.3.1.608.214.9.346.149.066.3.132.44.206s.286.15.425.225.273.167.409.248.261.168.38.26c.251.176.478.363.688.538s.4.367.571.543c.138.141.262.284.375.413-.043-.114-.089-.229-.139-.339-.077-.169-.151-.335-.243-.506s-.179-.318-.278-.477-.2-.31-.309-.462-.225-.3-.343-.443-.247-.275-.374-.413l-.2-.2-.2-.189c-.141-.123-.278-.25-.426-.368l-.221-.175-.225-.164c-.151-.109-.308-.212-.465-.313s-.319-.2-.486-.286l-.244-.135-.256-.124c-.164-.089-.341-.164-.512-.241s-.35-.138-.524-.21c-.042-.014-.087-.032-.128-.044l.63,2.11c.1.02.2.046.3.067l.452.135" transform="translate(-339.288 -2139.123)" fill="#0070bf" fill-rule="evenodd"/>
        <path id="Path_836" data-name="Path 836" d="M338.459,2141.349c.121.006.247.024.378.033s.262.025.4.052.3.046.454.069l-.621-2.273-.109-.409.4.152c.182.075.365.14.546.212s.359.156.534.239.351.166.524.261l.258.137.25.146c.168.1.329.213.49.311.162.114.323.221.473.342l.231.18.218.183c.148.127.289.259.428.4l.2.2.193.215c.129.144.253.287.372.443s.229.3.336.463.211.315.306.482.186.327.269.5.156.339.233.517.129.351.187.534c.015.055.029.107.045.154h.014v-11.566c-.243,0-.5,0-.747,0a12.373,12.373,0,0,1-1.882,4.548c-1.842,2.769-5.172-1.474-6.058-2.691-.1.022-.2.057-.3.089-.05.018-.1.037-.16.06q.776,2.995,1.542,6c.143.006.481.023.595.025" transform="translate(-334.636 -2130.365)" fill="#0070bf" fill-rule="evenodd"/>
        <path id="Path_837" data-name="Path 837" d="M367.24,2153.646l-4.906,2.468c.023-.023.044-.048.069-.071.185-.177.387-.36.606-.532.11-.1.227-.179.341-.264s.24-.17.367-.25.251-.16.384-.234.266-.143.4-.218c.272-.138.554-.264.834-.376.139-.052.282-.1.423-.155.142-.04.28-.083.421-.129.28-.069.552-.14.816-.192.084-.021.164-.032.245-.046" transform="translate(-349.87 -2142.267)" fill="#0070bf" fill-rule="evenodd"/>
        <path id="Path_838" data-name="Path 838" d="M363.258,2150.589c-.3.1-.609.214-.9.346-.145.066-.3.132-.438.206s-.286.15-.423.225-.274.167-.411.248-.261.168-.38.26c-.252.176-.478.363-.689.538s-.4.367-.571.543c-.14.141-.265.284-.373.413.043-.114.087-.229.136-.339.077-.169.156-.335.241-.506s.184-.318.281-.477.2-.31.311-.462.224-.3.345-.443.242-.275.371-.413l.2-.2.2-.189c.139-.123.278-.25.425-.368l.219-.175.226-.164c.152-.109.31-.212.465-.313s.32-.2.486-.286l.244-.135.254-.124c.169-.089.346-.164.515-.241s.35-.138.525-.21c.042-.014.085-.032.129-.044l-.632,2.11c-.1.02-.2.046-.3.067l-.451.135" transform="translate(-347.959 -2139.123)" fill="#0070bf" fill-rule="evenodd"/>
        <path id="Path_839" data-name="Path 839" d="M365.389,2141.349c-.121.006-.246.024-.374.033s-.263.025-.4.052c-.151.017-.3.046-.452.069l.617-2.273.114-.409-.4.152c-.186.075-.368.14-.549.212s-.362.156-.534.239-.353.166-.523.261l-.259.137-.248.146c-.172.1-.331.213-.5.311-.16.114-.317.221-.472.342l-.229.18-.218.183c-.148.127-.289.259-.431.4l-.2.2-.195.215c-.126.144-.254.287-.369.443s-.229.3-.34.463-.205.315-.3.482-.185.327-.268.5-.16.339-.231.517-.132.351-.189.534c-.015.055-.029.107-.042.154h-.019v-11.566c.245,0,.5,0,.745,0a12.423,12.423,0,0,0,1.887,4.548c1.84,2.769,5.171-1.474,6.056-2.691.1.022.2.057.295.089.049.018.1.037.158.06q-.769,2.995-1.539,6c-.144.006-.481.023-.6.025" transform="translate(-347.557 -2130.365)" fill="#00366c" fill-rule="evenodd"/>
        <path id="Path_840" data-name="Path 840" d="M345.446,2156.266l0,0-1.19-.19v-.39l-1.961-1.023-6-3.024,3.474,4.837,1.707.626,2.789,1.014,0,.192,1.181.2Z" transform="translate(-334.617 -2141.091)" fill="#0070bf" fill-rule="evenodd"/>
        <path id="Path_841" data-name="Path 841" d="M358.387,2156.266l0,0,1.19-.19v-.39l1.958-1.023,6-3.024-3.472,4.837-1.707.626-2.79,1.014,0,.192-1.181.2Z" transform="translate(-347.558 -2141.091)" fill="#00366c" fill-rule="evenodd"/>
      </g>
      <g id="Group_307" data-name="Group 307" transform="translate(1074.078 2036.195)">
        <path id="Path_842" data-name="Path 842" d="M421.736,2115.733h2.947v5.967h.057c.293-.52.6-1,.9-1.481l2.982-4.486h3.649l-4.35,5.748,4.584,7.751h-3.471l-3.219-5.827-1.129,1.42v4.407h-2.947Z" transform="translate(-421.314 -2115.512)" fill="#272727"/>
        <rect id="Rectangle_923" data-name="Rectangle 923" width="2.984" height="13.499" transform="translate(12.786 0.22)" fill="#272727"/>
        <path id="Path_843" data-name="Path 843" d="M465.935,2115.769a23.977,23.977,0,0,1,4.019-.28,6.182,6.182,0,0,1,4.016,1.082,3.991,3.991,0,0,1,1.4,3.126,4.371,4.371,0,0,1-1.209,3.2,6,6,0,0,1-4.27,1.422,7.323,7.323,0,0,1-1.015-.06v4.826h-2.946Zm2.946,6.129a4.365,4.365,0,0,0,.994.081c1.579,0,2.555-.82,2.555-2.2,0-1.241-.839-1.983-2.321-1.983a4.933,4.933,0,0,0-1.228.121Z" transform="translate(-447.201 -2115.369)" fill="#272727"/>
        <path id="Path_844" data-name="Path 844" d="M493.6,2125.777a7.428,7.428,0,0,0,3.3.838c1.365,0,2.086-.578,2.086-1.46,0-.84-.623-1.321-2.2-1.9-2.187-.781-3.608-2.021-3.608-3.984,0-2.3,1.871-4.067,4.971-4.067a7.856,7.856,0,0,1,3.357.682l-.664,2.462a6.136,6.136,0,0,0-2.749-.64c-1.288,0-1.911.6-1.911,1.3,0,.86.74,1.242,2.438,1.9,2.32.881,3.413,2.123,3.413,4.026,0,2.263-1.7,4.187-5.305,4.187A8.416,8.416,0,0,1,493,2128.3Z" transform="translate(-463.052 -2115.201)" fill="#272727"/>
        <path id="Path_845" data-name="Path 845" d="M424.69,2165.715h-2.981v2.84h3.321v.852h-4.311v-7.874h4.14v.854h-3.15v2.49h2.981Z" transform="translate(-420.719 -2142.336)" fill="#272727"/>
        <path id="Path_846" data-name="Path 846" d="M434.229,2161.56a13.751,13.751,0,0,1,2.1-.161,4.316,4.316,0,0,1,3.106.979,3.684,3.684,0,0,1,1.081,2.826,4.243,4.243,0,0,1-1.1,3.063,4.661,4.661,0,0,1-3.393,1.132,15.868,15.868,0,0,1-1.8-.093Zm.989,6.962a6.17,6.17,0,0,0,1,.059,2.987,2.987,0,0,0,3.265-3.341,2.772,2.772,0,0,0-3.106-3.038,5.424,5.424,0,0,0-1.161.107Z" transform="translate(-428.631 -2142.258)" fill="#272727"/>
        <path id="Path_847" data-name="Path 847" d="M453.485,2161.53v4.663c0,1.765.765,2.511,1.788,2.511,1.139,0,1.866-.77,1.866-2.511v-4.663h1v4.592c0,2.418-1.241,3.414-2.9,3.414-1.571,0-2.753-.923-2.753-3.366v-4.64Z" transform="translate(-439.324 -2142.334)" fill="#272727"/>
        <path id="Path_848" data-name="Path 848" d="M474.993,2168.971a4.8,4.8,0,0,1-2.025.375,3.634,3.634,0,0,1-3.789-3.985,3.869,3.869,0,0,1,4.006-4.135,4.009,4.009,0,0,1,1.82.35l-.24.828a3.52,3.52,0,0,0-1.547-.327c-1.8,0-2.993,1.18-2.993,3.249,0,1.928,1.082,3.167,2.946,3.167a3.912,3.912,0,0,0,1.617-.326Z" transform="translate(-449.101 -2142.157)" fill="#272727"/>
        <path id="Path_849" data-name="Path 849" d="M486.732,2166.93l-.795,2.475h-1.024l2.6-7.875h1.194l2.618,7.875h-1.058l-.817-2.475Zm2.517-.8-.75-2.266c-.172-.515-.287-.981-.4-1.439h-.023c-.113.47-.238.948-.385,1.429l-.75,2.277Z" transform="translate(-458.316 -2142.334)" fill="#272727"/>
        <path id="Path_850" data-name="Path 850" d="M501.222,2162.4h-2.334v-.865h5.678v.865h-2.345v7.01h-1Z" transform="translate(-466.501 -2142.335)" fill="#272727"/>
        <rect id="Rectangle_924" data-name="Rectangle 924" width="0.99" height="7.874" transform="translate(38.918 19.196)" fill="#272727"/>
        <path id="Path_851" data-name="Path 851" d="M527.122,2165.208c0,2.711-1.6,4.148-3.56,4.148-2.027,0-3.447-1.614-3.447-4,0-2.5,1.513-4.136,3.561-4.136,2.093,0,3.446,1.647,3.446,3.985m-5.949.127c0,1.683.887,3.189,2.445,3.189s2.459-1.483,2.459-3.272c0-1.563-.8-3.2-2.447-3.2s-2.457,1.555-2.457,3.283" transform="translate(-478.932 -2142.155)" fill="#272727"/>
        <path id="Path_852" data-name="Path 852" d="M540.129,2169.406v-7.874h1.08l2.459,3.985a22.487,22.487,0,0,1,1.377,2.559l.021-.012c-.089-1.053-.113-2.01-.113-3.236v-3.3h.934v7.874h-1l-2.434-3.994a25.456,25.456,0,0,1-1.434-2.629l-.034.011c.058,1,.082,1.94.082,3.249v3.363Z" transform="translate(-490.654 -2142.335)" fill="#272727"/>
        <path id="Path_853" data-name="Path 853" d="M420.968,2196.212a3.455,3.455,0,0,0,1.776.514c1.012,0,1.6-.549,1.6-1.346,0-.733-.409-1.154-1.446-1.564-1.251-.455-2.024-1.121-2.024-2.23a2.228,2.228,0,0,1,2.479-2.14,3.382,3.382,0,0,1,1.695.388l-.272.829a3,3,0,0,0-1.456-.375c-1.047,0-1.445.642-1.445,1.181,0,.737.467,1.1,1.524,1.519,1.3.513,1.957,1.156,1.957,2.314,0,1.214-.875,2.265-2.684,2.265a3.9,3.9,0,0,1-1.957-.5Z" transform="translate(-420.719 -2158.684)" fill="#272727"/>
        <path id="Path_854" data-name="Path 854" d="M435.881,2197.631v-3.342l-2.424-4.534h1.128l1.08,2.173c.3.6.523,1.076.762,1.626h.022c.219-.513.48-1.03.774-1.626l1.1-2.173h1.125l-2.57,4.523v3.353Z" transform="translate(-428.179 -2158.865)" fill="#272727"/>
        <path id="Path_855" data-name="Path 855" d="M449,2196.212a3.443,3.443,0,0,0,1.776.514c1.012,0,1.6-.549,1.6-1.346,0-.733-.411-1.154-1.445-1.564-1.252-.455-2.026-1.121-2.026-2.23a2.23,2.23,0,0,1,2.48-2.14,3.388,3.388,0,0,1,1.7.388l-.273.829a3,3,0,0,0-1.457-.375c-1.046,0-1.443.642-1.443,1.181,0,.737.466,1.1,1.523,1.519,1.3.513,1.958,1.156,1.958,2.314,0,1.214-.876,2.265-2.686,2.265a3.9,3.9,0,0,1-1.956-.5Z" transform="translate(-437.138 -2158.684)" fill="#272727"/>
        <path id="Path_856" data-name="Path 856" d="M463.44,2190.621h-2.333v-.867h5.678v.867h-2.344v7.01h-1Z" transform="translate(-444.373 -2158.865)" fill="#272727"/>
        <path id="Path_857" data-name="Path 857" d="M480.841,2193.937h-2.982v2.841h3.323v.853h-4.313v-7.876h4.141v.854h-3.151v2.487h2.982Z" transform="translate(-453.604 -2158.865)" fill="#272727"/>
        <path id="Path_858" data-name="Path 858" d="M496.55,2194.173c-.056-1.1-.126-2.42-.114-3.4H496.4c-.261.924-.579,1.906-.966,2.992l-1.354,3.818h-.752l-1.237-3.749c-.365-1.109-.674-2.125-.89-3.062h-.022c-.022.981-.081,2.3-.149,3.483l-.205,3.377h-.943l.534-7.876h1.263l1.309,3.811c.319.969.578,1.834.774,2.652h.031c.193-.8.468-1.659.811-2.652l1.364-3.811h1.262l.477,7.876h-.966Z" transform="translate(-461.226 -2158.865)" fill="#272727"/>
      </g>
    </g>
  </g>
</svg>
