<svg xmlns="http://www.w3.org/2000/svg" width="98" height="99" viewBox="0 0 98 99">
  <g id="Group_472" data-name="Group 472" transform="translate(-113 -1271)">
    <g id="Group_471" data-name="Group 471">
      <g id="Group_470" data-name="Group 470">
        <g id="Group_469" data-name="Group 469">
          <path id="Rectangle_925" data-name="Rectangle 925" d="M0,0H78A20,20,0,0,1,98,20V99a0,0,0,0,1,0,0H20A20,20,0,0,1,0,79V0A0,0,0,0,1,0,0Z" transform="translate(113 1271)" fill="#00366c"/>
          <g id="teacher" transform="translate(130 1293)">
            <path id="Path_879" data-name="Path 879" d="M400.122,297.352H394.2a.925.925,0,1,0,0,1.851h5.922a.925.925,0,1,0,0-1.851Z" transform="translate(-344.75 -265.035)" fill="#f0f5ff" stroke="#f0f5ff" stroke-width="0.2"/>
            <path id="Path_880" data-name="Path 880" d="M400.122,328.181H394.2a.925.925,0,1,0,0,1.851h5.922a.925.925,0,1,0,0-1.851Z" transform="translate(-344.75 -292.06)" fill="#f0f5ff" stroke="#f0f5ff" stroke-width="0.2"/>
            <path id="Path_881" data-name="Path 881" d="M400.122,266.523H394.2a.925.925,0,1,0,0,1.851h5.922a.925.925,0,1,0,0-1.851Z" transform="translate(-344.75 -238.01)" fill="#f0f5ff" stroke="#f0f5ff" stroke-width="0.2"/>
            <path id="Path_882" data-name="Path 882" d="M276.261,256.769a1.5,1.5,0,0,0-1.5,1.5v.877h-2.171a1.5,1.5,0,0,0-1.5,1.5v.791h-2.177a1.5,1.5,0,0,0-1.5,1.5v4.334a1.375,1.375,0,0,0,1.373,1.373h10.12a1.375,1.375,0,0,0,1.373-1.373v-9a1.5,1.5,0,0,0-1.5-1.5ZM271.1,266.784h-1.823v-3.5H271.1Zm3.668,0h-1.817v-5.79h1.817Zm3.674,0h-1.817c0-5.985-.006-7.888-.006-8.164h1.823v8.164Z" transform="translate(-234.426 -229.459)" fill="#f0f5ff" stroke="#f0f5ff" stroke-width="0.2"/>
            <path id="Path_883" data-name="Path 883" d="M2.276,89.861H17.912a.925.925,0,1,0,0-1.851H8.4V75.579a.925.925,0,1,0-1.851,0V88.01H2.276a.426.426,0,0,1-.425-.425v-13.1A6.022,6.022,0,0,1,5.323,69.06l6.017-2.35,3.581,3.581a7.28,7.28,0,0,0,10.3,0l3.531-3.531V79.008a2.377,2.377,0,0,0,2.375,2.375h.613v6.628H22.23a.925.925,0,1,0,0,1.851H37.866a2.278,2.278,0,0,0,2.276-2.276v-6.2h3.841V84.22a2.9,2.9,0,1,0,1.851,0V81.383H58.69a2.377,2.377,0,0,0,2.375-2.375V70.833a.925.925,0,0,0-1.851,0v8.175a.525.525,0,0,1-.524.524H31.126a.525.525,0,0,1-.524-.524V57.372H59.214v9.142a.925.925,0,1,0,1.851,0V57.372h0a2.11,2.11,0,0,0,2.108-2.108V53.48a2.11,2.11,0,0,0-2.108-2.108H31.895a4.011,4.011,0,0,0-1.571-2.5,2.321,2.321,0,0,0,.139-.787V42.111a3.265,3.265,0,0,0-3.446-3.26.46.46,0,0,1-.511-.34c-.405-2.072-1.707-3.08-3.98-3.08H14.672a6.151,6.151,0,0,0-6.144,6.144V47.3a3.111,3.111,0,0,0,.8,2.089,3.8,3.8,0,0,0,2.4,6.521A8.411,8.411,0,0,0,15,61.46v1.835L4.641,67.339l-.016.006A7.825,7.825,0,0,0,0,74.487v13.1a2.278,2.278,0,0,0,2.276,2.276Zm42.632-3.943a1.046,1.046,0,1,1-1.046,1.046A1.047,1.047,0,0,1,44.908,85.918ZM33.59,81.382h4.7v6.2a.426.426,0,0,1-.425.425H33.59V81.382ZM17.655,70.007l1.811-1.823,0,0a1.6,1.6,0,0,0,.206-.263h.776a1.578,1.578,0,0,0,.21.267l1.816,1.828a5.425,5.425,0,0,1-4.821-.005Zm-.808-6.491c0-.023,0-.047,0-.071v-.95a8.764,8.764,0,0,0,6.44.015v.943c0,.018,0,.035,0,.053l-2.58,2.561H19.416Zm7.14,5.391-1.743-1.755,2.146-2.131,2.511.972Zm4.764-4.181-3.611-1.4,0-1.857a8.347,8.347,0,0,0,2.979-4.195,2.1,2.1,0,0,0,.633.1h0Zm32.315-11.5a.258.258,0,0,1,.257.257v1.784a.258.258,0,0,1-.257.257H28.75a.258.258,0,0,1-.257-.257V53.48a.258.258,0,0,1,.257-.257H61.066ZM29.032,50.242a2.14,2.14,0,0,1,.951,1.13H28.75a2.575,2.575,0,0,0-.257.016V50.4A2.5,2.5,0,0,0,29.032,50.242ZM11.649,54.025a2.023,2.023,0,0,1-1.622-1.912,2.144,2.144,0,0,1,1.022-1.746,3.122,3.122,0,0,0,.447.055q.076,0,.152,0v3.6Zm0-5.45A1.276,1.276,0,0,1,10.379,47.3V41.575a4.3,4.3,0,0,1,4.294-4.294h7.853c1.714,0,1.994.717,2.164,1.584a2.313,2.313,0,0,0,2.469,1.83,1.417,1.417,0,0,1,1.453,1.415v5.977a.5.5,0,0,1-.487.487,1.778,1.778,0,0,1-1.77-1.77,1.066,1.066,0,0,0-2-.5,4.289,4.289,0,0,1-3.788,2.273H11.651ZM13.5,54.8V50.426h7.065a6.14,6.14,0,0,0,4.4-1.855,3.643,3.643,0,0,0,1.678,1.536V54.8a6.572,6.572,0,0,1-13.143,0ZM15.716,65l2.166,2.151L16.147,68.9l-2.924-2.924Z" transform="translate(0 -35.431)" fill="#f0f5ff" stroke="#f0f5ff" stroke-width="0.2"/>
          </g>
        </g>
      </g>
    </g>
  </g>
</svg>
