<svg xmlns="http://www.w3.org/2000/svg" width="117.283" height="44.725" viewBox="0 0 117.283 44.725">
  <g id="Group_469" data-name="Group 469" transform="translate(-623.354 -2031.5)">
    <g id="Group_446" data-name="Group 446" transform="translate(28.265 -0.131)">
      <g id="Group_297" data-name="Group 297" transform="translate(637.375 2035.372)">
        <path id="Path_775" data-name="Path 775" d="M1085.256,2109.817h3.225v6.534h.064c.32-.571.66-1.1.98-1.622l3.268-4.912h3.993l-4.761,6.294,5.015,8.481h-3.8l-3.522-6.378-1.238,1.557v4.822h-3.225Z" transform="translate(-1084.744 -2109.577)" fill="#272727"/>
        <rect id="Rectangle_918" data-name="Rectangle 918" width="3.267" height="14.775" transform="translate(14.051 0.24)" fill="#272727"/>
        <path id="Path_776" data-name="Path 776" d="M1133.474,2109.863a26.161,26.161,0,0,1,4.4-.306,6.769,6.769,0,0,1,4.4,1.184,4.363,4.363,0,0,1,1.538,3.42,4.789,4.789,0,0,1-1.324,3.507,6.554,6.554,0,0,1-4.676,1.556,7.876,7.876,0,0,1-1.11-.066v5.283h-3.224Zm3.224,6.709a4.737,4.737,0,0,0,1.088.089c1.729,0,2.8-.9,2.8-2.411,0-1.36-.917-2.171-2.54-2.171a5.348,5.348,0,0,0-1.344.133Z" transform="translate(-1112.909 -2109.425)" fill="#272727"/>
        <path id="Path_777" data-name="Path 777" d="M1163.664,2120.816a8.139,8.139,0,0,0,3.607.92c1.5,0,2.286-.637,2.286-1.6,0-.921-.685-1.447-2.414-2.082-2.39-.855-3.949-2.215-3.949-4.362,0-2.522,2.05-4.451,5.445-4.451a8.607,8.607,0,0,1,3.672.746l-.726,2.7a6.693,6.693,0,0,0-3.01-.7c-1.409,0-2.092.656-2.092,1.425,0,.943.81,1.359,2.669,2.083,2.54.965,3.735,2.324,3.735,4.406,0,2.476-1.857,4.581-5.807,4.581a9.221,9.221,0,0,1-4.077-.9Z" transform="translate(-1130.157 -2109.24)" fill="#272727"/>
        <path id="Path_778" data-name="Path 778" d="M1084.495,2170.265a6.467,6.467,0,0,0,3.331.963c1.9,0,3.01-1.03,3.01-2.521,0-1.38-.769-2.167-2.712-2.936-2.348-.854-3.8-2.105-3.8-4.186,0-2.3,1.857-4.011,4.654-4.011a6.414,6.414,0,0,1,3.181.722l-.512,1.558a5.612,5.612,0,0,0-2.734-.7c-1.963,0-2.709,1.205-2.709,2.214,0,1.382.875,2.061,2.86,2.848,2.434.965,3.671,2.171,3.671,4.342,0,2.278-1.644,4.252-5.037,4.252a7.283,7.283,0,0,1-3.673-.942Z" transform="translate(-1084.025 -2137.473)" fill="#272727"/>
        <path id="Path_779" data-name="Path 779" d="M1119.941,2172.106a9.011,9.011,0,0,1-3.8.7c-4.056,0-7.109-2.63-7.109-7.475,0-4.626,3.053-7.759,7.515-7.759a7.547,7.547,0,0,1,3.415.657l-.448,1.557a6.626,6.626,0,0,0-2.9-.614c-3.372,0-5.615,2.213-5.615,6.093,0,3.618,2.029,5.941,5.53,5.941a7.289,7.289,0,0,0,3.03-.614Z" transform="translate(-1098.632 -2137.473)" fill="#272727"/>
        <path id="Path_780" data-name="Path 780" d="M1142.727,2158.154v6.181h6.959v-6.181h1.879v14.774h-1.879V2166h-6.959v6.926h-1.857v-14.774Z" transform="translate(-1117.229 -2137.812)" fill="#272727"/>
        <path id="Path_781" data-name="Path 781" d="M1185.447,2165.05c0,5.084-3.011,7.78-6.683,7.78-3.8,0-6.469-3.025-6.469-7.5,0-4.691,2.839-7.759,6.682-7.759,3.929,0,6.47,3.09,6.47,7.476m-11.166.239c0,3.158,1.665,5.984,4.589,5.984,2.946,0,4.612-2.784,4.612-6.137,0-2.937-1.493-6.006-4.589-6.006-3.074,0-4.611,2.917-4.611,6.159" transform="translate(-1135.585 -2137.473)" fill="#272727"/>
        <path id="Path_782" data-name="Path 782" d="M1220.823,2165.05c0,5.084-3.01,7.78-6.681,7.78-3.8,0-6.47-3.025-6.47-7.5,0-4.691,2.84-7.759,6.683-7.759,3.928,0,6.468,3.09,6.468,7.476m-11.164.239c0,3.158,1.666,5.984,4.59,5.984,2.946,0,4.612-2.784,4.612-6.137,0-2.937-1.495-6.006-4.59-6.006-3.075,0-4.611,2.917-4.611,6.159" transform="translate(-1156.251 -2137.473)" fill="#272727"/>
        <path id="Path_783" data-name="Path 783" d="M1245.109,2158.154h1.858v13.173h6.149v1.6h-8.006Z" transform="translate(-1178.118 -2137.812)" fill="#272727"/>
      </g>
      <path id="Subtraction_1" data-name="Subtraction 1" d="M7840.713-5933.275h0l-.132-.034c-.077-.019-1.961-.505-7.88-4.069a14.52,14.52,0,0,1-5.579-5.84,9.883,9.883,0,0,1-1.057-3.276l-.065-.609V-5977h29.452l0,29.957-.061.558c-.022.222-.608,5.478-6.638,9.108-5.9,3.553-7.827,4.049-7.906,4.069l-.131.034Zm-13.629-42.641v28.783l.057.528a9.309,9.309,0,0,0,.977,2.913,13.372,13.372,0,0,0,5.141,5.383,46.073,46.073,0,0,0,7.456,3.909,45.29,45.29,0,0,0,7.478-3.909,13.3,13.3,0,0,0,5.1-5.3,9.64,9.64,0,0,0,1.019-2.984v-.006l.056-.53v-28.785Z" transform="translate(-7230.41 8009.131)" fill="#0070bf" stroke="rgba(0,0,0,0)" stroke-miterlimit="10" stroke-width="1"/>
      <g id="Group_298" data-name="Group 298" transform="translate(600.634 2039.873)">
        <path id="Path_786" data-name="Path 786" d="M996.532,2162.875h.98v3.468h.034c.2-.281.406-.534.6-.773l2.321-2.7h1.216l-2.751,3.05,2.964,4.142h-1.159l-2.5-3.535-.723.792v2.743h-.98Z" transform="translate(-996.178 -2145.07)" fill="#161615"/>
        <rect id="Rectangle_919" data-name="Rectangle 919" width="0.981" height="7.189" transform="translate(6.461 17.805)" fill="#161615"/>
        <path id="Path_787" data-name="Path 787" d="M1017.7,2162.882a11.757,11.757,0,0,1,1.879-.14,3.245,3.245,0,0,1,2.13.6,1.888,1.888,0,0,1,.665,1.506,2.065,2.065,0,0,1-.586,1.536,3.252,3.252,0,0,1-2.32.789,3.529,3.529,0,0,1-.789-.065v2.881h-.979Zm.979,3.467a3.419,3.419,0,0,0,.812.074c1.182,0,1.9-.545,1.9-1.537,0-.95-.709-1.408-1.792-1.408a4.439,4.439,0,0,0-.923.074Z" transform="translate(-1008.54 -2144.992)" fill="#161615"/>
        <path id="Path_788" data-name="Path 788" d="M1031.434,2168.764a3.622,3.622,0,0,0,1.759.47c1,0,1.588-.5,1.588-1.226,0-.674-.407-1.056-1.432-1.431-1.24-.414-2-1.023-2-2.037,0-1.121.981-1.955,2.455-1.955a3.615,3.615,0,0,1,1.68.354l-.271.757a3.169,3.169,0,0,0-1.443-.341c-1.036,0-1.43.585-1.43,1.077,0,.673.46,1,1.509,1.387,1.284.47,1.937,1.058,1.937,2.111,0,1.11-.865,2.073-2.657,2.073a4.109,4.109,0,0,1-1.938-.46Z" transform="translate(-1016.421 -2144.901)" fill="#161615"/>
        <path id="Path_789" data-name="Path 789" d="M1039.09,2125.467a1.107,1.107,0,1,1-1.107-1.069,1.088,1.088,0,0,1,1.107,1.069" transform="translate(-1019.744 -2122.595)" fill="#0070bf" fill-rule="evenodd"/>
        <path id="Path_790" data-name="Path 790" d="M1018.635,2121.127a1.109,1.109,0,1,1-1.107-1.065,1.088,1.088,0,0,1,1.107,1.065" transform="translate(-1007.795 -2120.062)" fill="#0070bf" fill-rule="evenodd"/>
        <path id="Path_791" data-name="Path 791" d="M997.894,2125.322a1.108,1.108,0,1,1-1.11-1.066,1.087,1.087,0,0,1,1.11,1.066" transform="translate(-995.68 -2122.512)" fill="#0070bf" fill-rule="evenodd"/>
        <path id="Path_792" data-name="Path 792" d="M1004.944,2144.647l4.406,2.216a.774.774,0,0,0-.063-.065,7.092,7.092,0,0,0-.541-.478c-.1-.088-.2-.16-.307-.237s-.217-.153-.331-.224-.227-.145-.343-.209-.24-.129-.362-.2c-.244-.124-.5-.238-.75-.339-.125-.047-.253-.087-.38-.138s-.255-.075-.376-.117c-.252-.062-.5-.126-.734-.173a2.071,2.071,0,0,0-.221-.04" transform="translate(-1001.091 -2134.423)" fill="#0070bf" fill-rule="evenodd"/>
        <path id="Path_793" data-name="Path 793" d="M1007.676,2141.918c.273.094.547.191.811.31.135.059.267.118.4.185s.257.134.381.2.247.15.367.222.235.152.343.234c.224.157.429.326.618.483s.361.33.513.488c.124.126.236.255.337.372-.039-.1-.081-.207-.125-.3-.069-.154-.136-.3-.218-.456s-.162-.286-.251-.428-.181-.278-.278-.416-.2-.264-.309-.4-.221-.248-.335-.371l-.178-.182-.18-.169c-.126-.111-.25-.225-.383-.33l-.2-.158-.2-.147c-.135-.1-.276-.191-.416-.281s-.288-.181-.437-.259l-.221-.121-.229-.111c-.148-.08-.307-.147-.46-.216s-.314-.124-.471-.189c-.037-.012-.079-.029-.115-.039l.566,1.9c.088.018.178.041.268.062.134.038.271.081.406.121" transform="translate(-1001.964 -2131.615)" fill="#0070bf" fill-rule="evenodd"/>
        <path id="Path_794" data-name="Path 794" d="M1001.243,2133.666c.109,0,.222.02.341.028s.235.024.356.047.27.041.408.061l-.558-2.042-.1-.37.358.137c.164.067.328.127.49.191s.323.139.479.214.316.149.472.236l.232.124.224.132c.152.087.3.191.44.279.145.1.291.2.426.308l.208.161.2.165c.133.115.26.233.385.357l.182.178.173.194c.117.129.227.257.334.4s.206.272.3.417a5.078,5.078,0,0,1,.275.433c.084.147.168.293.242.452s.14.3.21.464.117.315.167.48c.015.05.027.1.04.137h.014v-10.391c-.219,0-.452,0-.672,0a11.106,11.106,0,0,1-1.692,4.085c-1.655,2.489-4.648-1.322-5.444-2.418-.085.021-.178.052-.265.079-.044.016-.087.034-.143.055q.7,2.692,1.385,5.387c.128,0,.432.02.535.024" transform="translate(-997.808 -2123.796)" fill="#0070bf" fill-rule="evenodd"/>
        <path id="Path_795" data-name="Path 795" d="M1027.019,2144.647l-4.407,2.216c.021-.02.04-.043.062-.065.166-.158.346-.323.544-.478.1-.088.2-.16.307-.237s.216-.153.329-.224.226-.145.345-.209.239-.129.36-.2c.244-.124.5-.238.75-.339.125-.047.253-.087.379-.138s.252-.075.378-.117c.251-.062.5-.126.733-.173a2.163,2.163,0,0,1,.219-.04" transform="translate(-1011.411 -2134.423)" fill="#0070bf" fill-rule="evenodd"/>
        <path id="Path_796" data-name="Path 796" d="M1023.452,2141.918c-.273.094-.548.191-.813.31-.13.059-.266.118-.393.185s-.257.134-.38.2-.246.15-.369.222-.235.152-.342.234c-.225.157-.428.326-.619.483s-.359.33-.512.488c-.126.126-.237.255-.334.372.039-.1.078-.207.121-.3.069-.154.141-.3.216-.456s.165-.286.252-.428.182-.278.28-.416.2-.264.31-.4.216-.248.332-.371l.176-.182.181-.169c.125-.111.251-.225.382-.33l.2-.158.2-.147c.134-.1.278-.191.417-.281s.287-.181.437-.259l.22-.121.227-.111c.151-.08.311-.147.462-.216s.315-.124.473-.189c.038-.012.076-.029.116-.039l-.57,1.9c-.084.018-.177.041-.267.062-.132.038-.271.081-.405.121" transform="translate(-1009.705 -2131.615)" fill="#0070bf" fill-rule="evenodd"/>
        <path id="Path_797" data-name="Path 797" d="M1025.368,2133.666c-.109,0-.221.02-.336.028s-.237.024-.359.047-.27.041-.406.061l.554-2.042.1-.37-.357.137c-.166.067-.33.127-.494.191s-.324.139-.479.214-.317.149-.47.236l-.234.124-.222.132c-.154.087-.3.191-.445.279-.143.1-.285.2-.424.308l-.205.161-.2.165c-.133.115-.26.233-.386.357l-.179.178-.175.194c-.115.129-.228.257-.332.4s-.206.272-.306.417-.183.282-.272.433-.167.293-.24.452-.144.3-.207.464-.12.315-.172.48c-.012.05-.025.1-.037.137h-.018v-10.391c.221,0,.453,0,.671,0a11.153,11.153,0,0,0,1.695,4.085c1.653,2.489,4.647-1.322,5.442-2.418.087.021.177.052.265.079.043.016.088.034.143.055q-.694,2.692-1.384,5.387c-.13,0-.433.02-.537.024" transform="translate(-1009.344 -2123.796)" fill="#00366c" fill-rule="evenodd"/>
        <path id="Path_798" data-name="Path 798" d="M1007.523,2147.005l0,0-1.069-.171v-.351l-1.761-.918-5.393-2.719,3.121,4.348,1.533.563,2.506.909,0,.174,1.062.182Z" transform="translate(-997.792 -2133.369)" fill="#0070bf" fill-rule="evenodd"/>
        <path id="Path_799" data-name="Path 799" d="M1019.078,2147.005l0,0,1.069-.171v-.351l1.76-.918,5.392-2.719-3.119,4.348-1.534.563-2.507.909,0,.174-1.061.182Z" transform="translate(-1009.347 -2133.369)" fill="#00366c" fill-rule="evenodd"/>
      </g>
    </g>
  </g>
</svg>
